<svg id="visual" viewBox="0 0 960 200" width="960" height="200" xmlns="http://www.w3.org/2000/svg" xmlns:xlink="http://www.w3.org/1999/xlink" version="1.1"><rect x="0" y="0" width="960" height="200" fill="#41bec2"></rect><path d="M0 126L22.8 128.7C45.7 131.3 91.3 136.7 137 138.5C182.7 140.3 228.3 138.7 274 131.8C319.7 125 365.3 113 411.2 110.5C457 108 503 115 548.8 118.5C594.7 122 640.3 122 686 128.2C731.7 134.3 777.3 146.7 823 146.8C868.7 147 914.3 135 937.2 129L960 123L960 0L937.2 0C914.3 0 868.7 0 823 0C777.3 0 731.7 0 686 0C640.3 0 594.7 0 548.8 0C503 0 457 0 411.2 0C365.3 0 319.7 0 274 0C228.3 0 182.7 0 137 0C91.3 0 45.7 0 22.8 0L0 0Z" fill="#96e3a5"></path><path d="M0 102L22.8 105.2C45.7 108.3 91.3 114.7 137 118C182.7 121.3 228.3 121.7 274 116.2C319.7 110.7 365.3 99.3 411.2 92.3C457 85.3 503 82.7 548.8 87.8C594.7 93 640.3 106 686 114.5C731.7 123 777.3 127 823 121C868.7 115 914.3 99 937.2 91L960 83L960 0L937.2 0C914.3 0 868.7 0 823 0C777.3 0 731.7 0 686 0C640.3 0 594.7 0 548.8 0C503 0 457 0 411.2 0C365.3 0 319.7 0 274 0C228.3 0 182.7 0 137 0C91.3 0 45.7 0 22.8 0L0 0Z" fill="#a4eaa4"></path><path d="M0 58L22.8 59.8C45.7 61.7 91.3 65.3 137 66.5C182.7 67.7 228.3 66.3 274 71.8C319.7 77.3 365.3 89.7 411.2 95.3C457 101 503 100 548.8 96.8C594.7 93.7 640.3 88.3 686 88.7C731.7 89 777.3 95 823 91.7C868.7 88.3 914.3 75.7 937.2 69.3L960 63L960 0L937.2 0C914.3 0 868.7 0 823 0C777.3 0 731.7 0 686 0C640.3 0 594.7 0 548.8 0C503 0 457 0 411.2 0C365.3 0 319.7 0 274 0C228.3 0 182.7 0 137 0C91.3 0 45.7 0 22.8 0L0 0Z" fill="#b3f0a3"></path><path d="M0 57L22.8 58.5C45.7 60 91.3 63 137 63.8C182.7 64.7 228.3 63.3 274 65C319.7 66.7 365.3 71.3 411.2 69.5C457 67.7 503 59.3 548.8 57.8C594.7 56.3 640.3 61.7 686 63.2C731.7 64.7 777.3 62.3 823 62.8C868.7 63.3 914.3 66.7 937.2 68.3L960 70L960 0L937.2 0C914.3 0 868.7 0 823 0C777.3 0 731.7 0 686 0C640.3 0 594.7 0 548.8 0C503 0 457 0 411.2 0C365.3 0 319.7 0 274 0C228.3 0 182.7 0 137 0C91.3 0 45.7 0 22.8 0L0 0Z" fill="#c3f7a2"></path><path d="M0 36L22.8 37.7C45.7 39.3 91.3 42.7 137 39.8C182.7 37 228.3 28 274 25.7C319.7 23.3 365.3 27.7 411.2 28C457 28.3 503 24.7 548.8 24.5C594.7 24.3 640.3 27.7 686 30C731.7 32.3 777.3 33.7 823 36.3C868.7 39 914.3 43 937.2 45L960 47L960 0L937.2 0C914.3 0 868.7 0 823 0C777.3 0 731.7 0 686 0C640.3 0 594.7 0 548.8 0C503 0 457 0 411.2 0C365.3 0 319.7 0 274 0C228.3 0 182.7 0 137 0C91.3 0 45.7 0 22.8 0L0 0Z" fill="#d3fda1"></path></svg>