<svg id="visual" viewBox="0 0 960 200" width="960" height="200" xmlns="http://www.w3.org/2000/svg" xmlns:xlink="http://www.w3.org/1999/xlink" version="1.1"><rect x="0" y="0" width="960" height="200" fill="#fd9d75"></rect><path d="M0 155L22.8 155C45.7 155 91.3 155 137 153C182.7 151 228.3 147 274 144.8C319.7 142.7 365.3 142.3 411.2 146.2C457 150 503 158 548.8 152.3C594.7 146.7 640.3 127.3 686 126.7C731.7 126 777.3 144 823 149.5C868.7 155 914.3 148 937.2 144.5L960 141L960 0L937.2 0C914.3 0 868.7 0 823 0C777.3 0 731.7 0 686 0C640.3 0 594.7 0 548.8 0C503 0 457 0 411.2 0C365.3 0 319.7 0 274 0C228.3 0 182.7 0 137 0C91.3 0 45.7 0 22.8 0L0 0Z" fill="#ff71b3"></path><path d="M0 117L22.8 113C45.7 109 91.3 101 137 102.7C182.7 104.3 228.3 115.7 274 118.5C319.7 121.3 365.3 115.7 411.2 114.7C457 113.7 503 117.3 548.8 115.7C594.7 114 640.3 107 686 104.5C731.7 102 777.3 104 823 110.8C868.7 117.7 914.3 129.3 937.2 135.2L960 141L960 0L937.2 0C914.3 0 868.7 0 823 0C777.3 0 731.7 0 686 0C640.3 0 594.7 0 548.8 0C503 0 457 0 411.2 0C365.3 0 319.7 0 274 0C228.3 0 182.7 0 137 0C91.3 0 45.7 0 22.8 0L0 0Z" fill="#f652ba"></path><path d="M0 75L22.8 79.3C45.7 83.7 91.3 92.3 137 93.8C182.7 95.3 228.3 89.7 274 91.3C319.7 93 365.3 102 411.2 101.7C457 101.3 503 91.7 548.8 88.3C594.7 85 640.3 88 686 85.5C731.7 83 777.3 75 823 79C868.7 83 914.3 99 937.2 107L960 115L960 0L937.2 0C914.3 0 868.7 0 823 0C777.3 0 731.7 0 686 0C640.3 0 594.7 0 548.8 0C503 0 457 0 411.2 0C365.3 0 319.7 0 274 0C228.3 0 182.7 0 137 0C91.3 0 45.7 0 22.8 0L0 0Z" fill="#e631c5"></path><path d="M0 77L22.8 73.7C45.7 70.3 91.3 63.7 137 62.8C182.7 62 228.3 67 274 71.2C319.7 75.3 365.3 78.7 411.2 76.3C457 74 503 66 548.8 64.3C594.7 62.7 640.3 67.3 686 70.2C731.7 73 777.3 74 823 76.5C868.7 79 914.3 83 937.2 85L960 87L960 0L937.2 0C914.3 0 868.7 0 823 0C777.3 0 731.7 0 686 0C640.3 0 594.7 0 548.8 0C503 0 457 0 411.2 0C365.3 0 319.7 0 274 0C228.3 0 182.7 0 137 0C91.3 0 45.7 0 22.8 0L0 0Z" fill="#cd03d6"></path><path d="M0 57L22.8 55.8C45.7 54.7 91.3 52.3 137 51.8C182.7 51.3 228.3 52.7 274 54.3C319.7 56 365.3 58 411.2 60.2C457 62.3 503 64.7 548.8 60.2C594.7 55.7 640.3 44.3 686 41.5C731.7 38.7 777.3 44.3 823 45.8C868.7 47.3 914.3 44.7 937.2 43.3L960 42L960 0L937.2 0C914.3 0 868.7 0 823 0C777.3 0 731.7 0 686 0C640.3 0 594.7 0 548.8 0C503 0 457 0 411.2 0C365.3 0 319.7 0 274 0C228.3 0 182.7 0 137 0C91.3 0 45.7 0 22.8 0L0 0Z" fill="#a800e9"></path><path d="M0 17L22.8 19.5C45.7 22 91.3 27 137 27.8C182.7 28.7 228.3 25.3 274 26.5C319.7 27.7 365.3 33.3 411.2 35.3C457 37.3 503 35.7 548.8 33.3C594.7 31 640.3 28 686 28.7C731.7 29.3 777.3 33.7 823 35.2C868.7 36.7 914.3 35.3 937.2 34.7L960 34L960 0L937.2 0C914.3 0 868.7 0 823 0C777.3 0 731.7 0 686 0C640.3 0 594.7 0 548.8 0C503 0 457 0 411.2 0C365.3 0 319.7 0 274 0C228.3 0 182.7 0 137 0C91.3 0 45.7 0 22.8 0L0 0Z" fill="#6600ff"></path></svg>